<svg width="32" height="32" viewBox="0 0 32 32" fill="none" xmlns="http://www.w3.org/2000/svg">
<path d="M3.99998 0H20.9929L29.9999 8.97203V30C29.9999 31.105 29.104 32 28 32H3.99998C2.89595 32 2 31.105 2 30V1.99998C2 0.89502 2.89605 0 3.99998 0Z" fill="#307DFB"/>
<path d="M29.971 9.00002H23C21.896 9.00002 21 8.10406 21 7.00003V0.0200195L29.971 9.00002Z" fill="#2E68FB"/>
<path d="M7.3136 14.9H9.7536C10.6283 14.9 11.3296 15.1587 11.8576 15.676C12.3909 16.1933 12.6576 16.868 12.6576 17.7C12.6576 18.5693 12.4016 19.2547 11.8896 19.756C11.3829 20.252 10.6256 20.5 9.6176 20.5H7.3136C7.43093 20.4093 7.5136 20.2973 7.5616 20.164C7.61493 20.0253 7.64427 19.8467 7.6496 19.628V15.772C7.6496 15.5587 7.62293 15.3853 7.5696 15.252C7.51627 15.1133 7.43093 14.996 7.3136 14.9ZM9.0896 15.868V19.548C9.16427 19.5747 9.23893 19.5933 9.3136 19.604C9.3936 19.6147 9.4896 19.62 9.6016 19.62C10.0656 19.62 10.4229 19.452 10.6736 19.116C10.9296 18.78 11.0576 18.308 11.0576 17.7C11.0523 17.0707 10.9296 16.5933 10.6896 16.268C10.4496 15.9427 10.1003 15.78 9.6416 15.78C9.5616 15.78 9.4736 15.788 9.3776 15.804C9.28693 15.82 9.19093 15.8413 9.0896 15.868Z" fill="white"/>
<path d="M13.4474 17.756C13.4474 16.94 13.7274 16.2333 14.2874 15.636C14.8474 15.0387 15.6154 14.74 16.5914 14.74C17.5194 14.74 18.2581 15.0147 18.8074 15.564C19.3567 16.1133 19.6314 16.8147 19.6314 17.668C19.6261 18.5213 19.3381 19.2333 18.7674 19.804C18.2021 20.3747 17.4421 20.66 16.4874 20.66C15.5914 20.66 14.8607 20.396 14.2954 19.868C13.7301 19.34 13.4474 18.636 13.4474 17.756ZM15.0474 17.532C15.0474 18.1987 15.1914 18.74 15.4794 19.156C15.7674 19.572 16.1514 19.78 16.6314 19.78C17.0367 19.78 17.3701 19.6253 17.6314 19.316C17.8981 19.0013 18.0314 18.548 18.0314 17.956C18.0314 17.252 17.8874 16.6867 17.5994 16.26C17.3114 15.8333 16.9541 15.62 16.5274 15.62C16.0687 15.62 15.7061 15.7933 15.4394 16.14C15.1781 16.4867 15.0474 16.9507 15.0474 17.532Z" fill="white"/>
<path d="M24.8257 14.9L24.9057 16.06C24.7084 15.9267 24.4951 15.82 24.2657 15.74C24.0364 15.66 23.8071 15.62 23.5777 15.62C23.0924 15.62 22.7084 15.7827 22.4257 16.108C22.1484 16.4333 22.0124 16.892 22.0177 17.484C22.0177 18.22 22.1724 18.788 22.4817 19.188C22.7964 19.5827 23.2604 19.78 23.8737 19.78C24.0871 19.78 24.3591 19.732 24.6897 19.636C25.0204 19.54 25.3457 19.4067 25.6657 19.236L25.2737 20.372C25.0177 20.4627 24.7484 20.532 24.4657 20.58C24.1831 20.6333 23.8737 20.66 23.5377 20.66C22.5404 20.66 21.7697 20.3773 21.2257 19.812C20.6871 19.2467 20.4177 18.54 20.4177 17.692C20.4177 16.8333 20.6977 16.1267 21.2577 15.572C21.8231 15.0173 22.5537 14.74 23.4497 14.74C23.6577 14.74 23.8764 14.7533 24.1057 14.78C24.3404 14.8067 24.5804 14.8467 24.8257 14.9Z" fill="white"/>
</svg>
