<svg width="20" height="20" viewBox="0 0 20 20" fill="none" xmlns="http://www.w3.org/2000/svg">
<path fill-rule="evenodd" clip-rule="evenodd" d="M4.51612 4.82208C3.8952 5.29624 3.34366 5.81355 2.86441 6.32475C2.05759 7.18535 1.44063 8.04404 1.0253 8.68713C0.817331 9.00915 0.659104 9.27838 0.552178 9.46847C0.498696 9.56354 0.457992 9.63893 0.430264 9.69133C0.416398 9.71753 0.405771 9.738 0.398409 9.75232L0.389814 9.76914L0.387357 9.774L0.38659 9.77553C0.386488 9.77573 0.38613 9.77645 0.833344 10.0001L0.38613 9.77645C0.315748 9.91721 0.315748 10.0829 0.38613 10.2237C0.386028 10.2235 0.38613 10.2237 0.833344 10.0001L0.38613 10.2237L0.38659 10.2246L0.387357 10.2261L0.389814 10.231L0.398409 10.2478C0.405771 10.2621 0.416398 10.2826 0.430264 10.3088C0.457992 10.3612 0.498696 10.4366 0.552178 10.5316C0.659104 10.7217 0.817331 10.991 1.0253 11.313C1.44063 11.9561 2.05759 12.8148 2.86441 13.6754C4.46892 15.3868 6.88359 17.1667 10 17.1667C12.0129 17.1667 13.733 16.4242 15.1312 15.4371L16.5753 16.8812M5.22993 5.53589L4.51612 4.82208ZM5.22993 5.53589C4.62174 5.98854 4.07535 6.49519 3.59395 7.00869C2.83826 7.81476 2.25731 8.62273 1.86534 9.22965C1.66967 9.53263 1.52191 9.78423 1.42375 9.95873L1.40063 10.0001L1.42375 10.0414C1.52191 10.2159 1.66967 10.4675 1.86534 10.7705C2.25731 11.3774 2.83826 12.1854 3.59395 12.9914C5.11444 14.6133 7.2831 16.1667 10 16.1667C11.6915 16.1667 13.1704 15.5646 14.4128 14.7188" fill="#A2A2A2"/>
<path fill-rule="evenodd" clip-rule="evenodd" d="M7.67301 8.10638C7.25227 8.6228 7 9.28192 7 9.99997C7 11.6568 8.34315 13 10 13C10.718 13 11.3772 12.7477 11.8936 12.327L11.1809 11.6143C10.85 11.8568 10.4417 12 10 12C8.89543 12 8 11.1045 8 9.99997C8 9.55826 8.14319 9.15 8.38569 8.81906L7.67301 8.10638Z" fill="#A2A2A2"/>
<path fill-rule="evenodd" clip-rule="evenodd" d="M16.4077 14.3993C16.6663 14.1601 16.909 13.917 17.1356 13.6753C17.9424 12.8147 18.5594 11.956 18.9747 11.313C19.1827 10.9909 19.3409 10.7217 19.4479 10.5316C19.5013 10.4366 19.5421 10.3612 19.5698 10.3088C19.5836 10.2826 19.5943 10.2621 19.6016 10.2478L19.6102 10.231L19.6127 10.2261L19.6135 10.2246C19.6136 10.2244 19.6139 10.2236 19.1667 10L19.6139 10.2236C19.6843 10.0829 19.6841 9.91681 19.6137 9.77605L19.6127 9.77399L19.6102 9.76913L19.6016 9.7523C19.5943 9.73798 19.5836 9.71751 19.5698 9.69131C19.5421 9.63891 19.5013 9.56353 19.4479 9.46845C19.3409 9.27836 19.1827 9.00913 18.9747 8.68711C18.5594 8.04403 17.9424 7.18534 17.1356 6.32474C15.5311 4.61326 13.1165 2.83337 10 2.83337C8.46436 2.83337 7.09908 3.26557 5.91718 3.9088L6.65821 4.64984C7.65375 4.15138 8.77078 3.83337 10 3.83337C12.7169 3.83337 14.8856 5.38682 16.4061 7.00868C17.1618 7.81474 17.7427 8.62272 18.1347 9.22964C18.3304 9.53262 18.4781 9.78422 18.5763 9.95871L18.5994 10L18.5763 10.0414C18.4781 10.2159 18.3304 10.4675 18.1347 10.7704C17.7427 11.3774 17.1618 12.1853 16.4061 12.9914C16.1844 13.2278 15.949 13.4628 15.7001 13.6917L16.4077 14.3993ZM19.1667 10C19.6139 9.77643 19.6138 9.77625 19.6137 9.77605L19.1667 10Z" fill="#A2A2A2"/>
<rect x="18.215" y="17.4714" width="1.05161" height="22.1877" rx="0.525807" transform="rotate(135 18.215 17.4714)" fill="#A2A2A2"/>
</svg>
