<svg width="26" height="26" viewBox="0 0 26 26" fill="none" xmlns="http://www.w3.org/2000/svg">
<path d="M13.0002 22.0278C17.9861 22.0278 22.028 17.9859 22.028 13C22.028 8.01407 17.9861 3.9722 13.0002 3.9722C8.01429 3.9722 3.97241 8.01407 3.97241 13C3.97241 17.9859 8.01429 22.0278 13.0002 22.0278Z" stroke="black" stroke-width="1.6" stroke-linecap="round" stroke-linejoin="round"/>
<path d="M10.373 10.2917C10.5853 9.6883 11.0042 9.17953 11.5556 8.85545C12.1071 8.53138 12.7554 8.41292 13.3858 8.52104C14.0162 8.62917 14.5879 8.95692 14.9999 9.44623C15.4118 9.93553 15.6372 10.5548 15.6362 11.1944C15.6362 13 12.9279 13.9028 12.9279 13.9028" stroke="black" stroke-width="1.6" stroke-linecap="round" stroke-linejoin="round"/>
<path d="M13 17.5139H13.0083" stroke="black" stroke-width="1.6" stroke-linecap="round" stroke-linejoin="round"/>
</svg>
