<svg width="24" height="24" viewBox="0 0 24 24" fill="none" xmlns="http://www.w3.org/2000/svg">
<path fill-rule="evenodd" clip-rule="evenodd" d="M11.5455 3.15343C11.814 2.94886 12.186 2.94886 12.4545 3.15343L19.9356 8.85327C20.37 9.18427 20.625 9.69911 20.625 10.2453V19.75C20.625 20.7971 19.7 21.5 18.75 21.5H15H9H5.25C4.29995 21.5 3.375 20.7971 3.375 19.75V10.2453C3.375 9.69911 3.62999 9.18427 4.06443 8.85327L11.5455 3.15343ZM12 4.69288L4.97349 10.0464C4.91143 10.0937 4.875 10.1673 4.875 10.2453V19.75C4.875 19.7883 4.8908 19.8415 4.95278 19.8965C5.01613 19.9529 5.11905 20 5.25 20H8.25V13.75C8.25 13.3358 8.58579 13 9 13H15C15.4142 13 15.75 13.3358 15.75 13.75V20H18.75C18.881 20 18.9839 19.9529 19.0472 19.8965C19.1092 19.8415 19.125 19.7883 19.125 19.75V10.2453C19.125 10.1673 19.0886 10.0937 19.0265 10.0464L12 4.69288ZM14.25 20V14.5H9.75V20H14.25Z" fill="white"/>
</svg>
