<svg width="32" height="32" viewBox="0 0 32 32" fill="none" xmlns="http://www.w3.org/2000/svg">
<path d="M3.99998 0H20.9929L29.9999 8.97203V30C29.9999 31.105 29.104 32 28 32H3.99998C2.89595 32 2 31.105 2 30V1.99998C2 0.89502 2.89605 0 3.99998 0Z" fill="#E2574C"/>
<path d="M29.971 9.00001H23C21.896 9.00001 21 8.10406 21 7.00003V0.0200195L29.971 9.00001Z" fill="#B53629"/>
<path d="M8.85156 14.8999H11.4516C11.9529 14.9053 12.3636 15.0493 12.6836 15.3319C13.0036 15.6146 13.1636 15.9773 13.1636 16.4199C13.1636 17.0119 12.9289 17.4573 12.4596 17.7559C11.9902 18.0546 11.4329 18.1693 10.7876 18.0999C11.0596 17.9826 11.2622 17.8146 11.3956 17.5959C11.5342 17.3773 11.6036 17.1133 11.6036 16.8039C11.5982 16.4786 11.5209 16.2199 11.3716 16.0279C11.2276 15.8359 11.0329 15.7399 10.7876 15.7399H10.7076V19.6279C10.7076 19.8466 10.7316 20.0253 10.7796 20.1639C10.8329 20.2973 10.9209 20.4093 11.0436 20.4999H8.85156C8.9689 20.4093 9.05156 20.2973 9.09956 20.1639C9.1529 20.0253 9.18223 19.8466 9.18756 19.6279V15.7719C9.18756 15.5586 9.1609 15.3853 9.10756 15.2519C9.05423 15.1133 8.9689 14.9959 8.85156 14.8999Z" fill="white"/>
<path d="M13.7281 14.8999H16.1681C17.0428 14.8999 17.7441 15.1586 18.2721 15.6759C18.8055 16.1933 19.0721 16.8679 19.0721 17.6999C19.0721 18.5693 18.8161 19.2546 18.3041 19.7559C17.7975 20.2519 17.0401 20.4999 16.0321 20.4999H13.7281C13.8455 20.4093 13.9281 20.2973 13.9761 20.1639C14.0295 20.0253 14.0588 19.8466 14.0641 19.6279V15.7719C14.0641 15.5586 14.0375 15.3853 13.9841 15.2519C13.9308 15.1133 13.8455 14.9959 13.7281 14.8999ZM15.5041 15.8679V19.5479C15.5788 19.5746 15.6535 19.5933 15.7281 19.6039C15.8081 19.6146 15.9041 19.6199 16.0161 19.6199C16.4801 19.6199 16.8375 19.4519 17.0881 19.1159C17.3441 18.7799 17.4721 18.3079 17.4721 17.6999C17.4668 17.0706 17.3441 16.5933 17.1041 16.2679C16.8641 15.9426 16.5148 15.7799 16.0561 15.7799C15.9761 15.7799 15.8881 15.7879 15.7921 15.8039C15.7015 15.8199 15.6055 15.8413 15.5041 15.8679Z" fill="white"/>
<path d="M19.8859 14.8999H22.9819C23.0193 14.8999 23.0539 14.8999 23.0859 14.8999C23.1179 14.8946 23.1499 14.8839 23.1819 14.8679V16.0599C23.1019 15.9479 23.0033 15.8599 22.8859 15.7959C22.7739 15.7319 22.6379 15.6999 22.4779 15.6999H21.7419V17.0999H22.9019V18.1879C22.8326 18.0973 22.7526 18.0279 22.6619 17.9799C22.5713 17.9266 22.4619 17.8999 22.3339 17.8999H21.7419V19.6279C21.7419 19.8466 21.7659 20.0253 21.8139 20.1639C21.8673 20.2973 21.9553 20.4093 22.0779 20.4999H19.8859C20.0033 20.4093 20.0859 20.2973 20.1339 20.1639C20.1873 20.0253 20.2166 19.8466 20.2219 19.6279V15.7719C20.2219 15.5586 20.1953 15.3853 20.1419 15.2519C20.0886 15.1133 20.0033 14.9959 19.8859 14.8999Z" fill="white"/>
</svg>
