<svg width="14" height="14" viewBox="0 0 14 14" fill="none" xmlns="http://www.w3.org/2000/svg">
<path d="M5.52366 3.89675L5.52371 3.89674L5.52143 3.88983C5.29137 3.19343 5.16667 2.44636 5.16667 1.66667C5.16667 1.02386 4.64281 0.5 4 0.5H1.66667C1.02386 0.5 0.5 1.02386 0.5 1.66667C0.5 8.20281 5.79719 13.5 12.3333 13.5C12.9761 13.5 13.5 12.9761 13.5 12.3333V10.0067C13.5 9.36386 12.9761 8.84 12.3333 8.84C11.5609 8.84 10.808 8.71549 10.1124 8.48597C9.69865 8.34544 9.23356 8.45266 8.91978 8.76645L7.71565 9.97058C6.17142 9.10466 4.88928 7.82669 4.02877 6.28501L5.23355 5.08022C5.5577 4.75607 5.65036 4.2999 5.52366 3.89675Z" stroke="#606E75"/>
</svg>
