<svg width="19" height="19" viewBox="0 0 19 19" fill="none" xmlns="http://www.w3.org/2000/svg">
<path d="M12.0071 8.47398L12.0071 8.47379C12.1122 8.25536 12.1136 8.13313 12.1033 8.08071C12.0981 8.05468 12.0793 7.96983 11.8881 7.85066C11.1842 7.4121 10.7026 6.82675 10.6317 6.07554C10.5647 5.36577 10.8881 4.71006 11.296 4.16203C11.3561 4.08118 11.417 3.99881 11.4786 3.91538C11.7797 3.50781 12.0997 3.0747 12.4477 2.66687C12.5069 2.59754 12.5657 2.52489 12.632 2.44305L12.6356 2.43871C12.7011 2.35786 12.774 2.2679 12.8501 2.17931C13.0008 2.00389 13.1882 1.80454 13.4199 1.63753C13.6586 1.46548 13.9481 1.32485 14.2975 1.27216C14.6453 1.21971 15.007 1.26126 15.3819 1.3865C16.1305 1.63644 16.8336 2.17103 17.3469 2.79154C17.854 3.40448 18.2586 4.20363 18.2499 5.02691L18.2488 5.12968L18.2201 5.22836C18.2187 5.23306 18.2156 5.24664 18.2108 5.26747C18.181 5.39679 18.087 5.80584 17.9487 6.10919L17.9486 6.10952C15.5353 11.397 11.5661 15.2523 5.88815 17.4344C4.8184 17.8455 3.75615 17.8619 2.84012 17.4431C1.92426 17.0245 1.25442 16.2164 0.882003 15.1716L0.881952 15.1715C0.714945 14.7026 0.694363 14.2018 0.890393 13.6991L12.0071 8.47398ZM12.0071 8.47398C11.2824 9.98185 10.185 11.1188 8.58858 11.7891M12.0071 8.47398L8.58858 11.7891M5.49741 10.4931L5.49746 10.4931C6.5707 10.4381 7.13325 11.177 7.43345 11.5944L5.49741 10.4931ZM5.49741 10.4931C5.28023 10.5043 5.06106 10.5692 4.87733 10.637M5.49741 10.4931L4.87733 10.637M8.58858 11.7891C8.25633 11.9286 8.03464 11.9555 7.88653 11.9313M8.58858 11.7891L7.88653 11.9313M7.88653 11.9313C7.76939 11.9121 7.61689 11.849 7.43369 11.5947L7.88653 11.9313ZM4.87733 10.637C4.68241 10.709 4.47376 10.8047 4.26341 10.9128M4.87733 10.637L4.26341 10.9128M4.26341 10.9128C3.84217 11.1293 3.37501 11.4156 2.93291 11.7203M4.26341 10.9128L2.93291 11.7203M2.93291 11.7203C2.49104 12.0247 2.05814 12.3585 1.70928 12.6744M2.93291 11.7203L1.70928 12.6744M1.70928 12.6744C1.53515 12.8321 1.37279 12.9935 1.23827 13.1516M1.70928 12.6744L1.23827 13.1516M1.23827 13.1516C1.11263 13.2992 0.972763 13.4879 0.890409 13.6991L1.23827 13.1516Z" stroke="white" stroke-width="1.5"/>
</svg>
