<svg width="24" height="23" viewBox="0 0 24 23" fill="none" xmlns="http://www.w3.org/2000/svg">
<path d="M15.3011 10.2905L15.3012 10.2903C15.443 9.99151 15.4625 9.78885 15.4376 9.66158C15.418 9.56073 15.3532 9.41092 15.0806 9.23877C14.2286 8.70088 13.6817 8.00667 13.6012 7.14264C13.5246 6.31977 13.8937 5.5408 14.3928 4.86151M15.3011 10.2905L15.8241 2.97826C15.394 3.48905 14.9989 4.03095 14.6225 4.54715C14.5452 4.65318 14.4687 4.75813 14.3928 4.86151M15.3011 10.2905C14.3761 12.241 12.971 13.717 10.93 14.5854C10.4995 14.7685 10.1862 14.8157 9.95442 14.7772C9.75391 14.7439 9.5221 14.6318 9.26763 14.2739C8.89588 13.7501 8.24568 12.8933 7.00592 12.9577L7.00587 12.9577M15.3011 10.2905L7.00587 12.9577M14.3928 4.86151L14.9972 5.30554M14.3928 4.86151C14.3927 4.86159 14.3927 4.86167 14.3926 4.86176L14.9972 5.30554M14.9972 5.30554C14.0864 6.54539 14.0156 7.67942 15.481 8.60458L15.2333 4.98254C15.1547 5.09033 15.0761 5.19808 14.9972 5.30554ZM7.00587 12.9577C6.76096 12.9705 6.50687 13.0454 6.28356 13.129M7.00587 12.9577L6.28356 13.129M1.40308 18.6139L1.40303 18.6138C1.20877 18.0612 1.1865 17.4793 1.41147 16.8946L1.40308 18.6139ZM1.40308 18.6139C1.85347 19.8944 2.65826 20.8722 3.74967 21.3778C4.84239 21.884 6.11962 21.8691 7.42102 21.3623C14.4734 18.6159 19.3968 13.7683 22.3917 7.11895L22.3918 7.11862M1.40308 18.6139L22.3918 7.11862M22.3918 7.11862C22.5505 6.76584 22.6552 6.3119 22.7 6.1173C22.7098 6.075 22.7167 6.04495 22.7208 6.03086L22.7488 5.93332M22.3918 7.11862L22.7488 5.93332M22.7488 5.93332L22.7498 5.83185M22.7488 5.93332L22.7498 5.83185M22.7498 5.83185C22.7601 4.85664 22.2848 3.89029 21.6673 3.13386M22.7498 5.83185L21.6673 3.13386M6.28356 13.129C6.04887 13.2168 5.79506 13.3346 5.53636 13.4693M6.28356 13.129L5.53636 13.4693M5.53636 13.4693C5.01841 13.739 4.44135 14.0973 3.89369 14.4797M5.53636 13.4693L3.89369 14.4797M3.89369 14.4797C3.34624 14.8619 2.81209 15.2795 2.3838 15.6725M3.89369 14.4797L2.3838 15.6725M2.3838 15.6725C2.16994 15.8687 1.97343 16.0671 1.81245 16.2587M2.3838 15.6725L1.81245 16.2587M1.81245 16.2587C1.66012 16.4401 1.50223 16.6588 1.41149 16.8946L1.81245 16.2587ZM21.6673 3.13386C21.0441 2.37048 20.1931 1.71707 19.2956 1.41349M21.6673 3.13386L19.2956 1.41349M19.2956 1.41349C18.849 1.26232 18.4256 1.2146 18.0234 1.27605M19.2956 1.41349C19.2956 1.41351 19.2957 1.41353 19.2958 1.41355L18.0234 1.27605M18.0234 1.27605C17.6196 1.33774 17.2846 1.50223 17.0057 1.70589M18.0234 1.27605L17.0057 1.70589M17.0057 1.70589C16.7339 1.90442 16.5111 2.14361 16.3267 2.36119M17.0057 1.70589L16.3267 2.36119M16.3267 2.36119C16.2336 2.47091 16.1442 2.58271 16.0621 2.68537M16.3267 2.36119L16.0621 2.68537M16.0621 2.68537L16.0568 2.69196M16.0621 2.68537L16.0568 2.69196M16.0568 2.69196C15.9746 2.7948 15.8997 2.8885 15.8242 2.97824L16.0568 2.69196Z" stroke="#606E75" stroke-width="1.5"/>
</svg>
