<svg width="26" height="26" viewBox="0 0 26 26" fill="none" xmlns="http://www.w3.org/2000/svg">
<path d="M13 16.25C14.7949 16.25 16.25 14.7949 16.25 13C16.25 11.2051 14.7949 9.75 13 9.75C11.2051 9.75 9.75 11.2051 9.75 13C9.75 14.7949 11.2051 16.25 13 16.25Z" stroke="#606E75" stroke-width="1.6" stroke-linecap="round" stroke-linejoin="round"/>
<path d="M21.0166 16.25C20.8724 16.5767 20.8294 16.9392 20.8931 17.2906C20.9568 17.642 21.1243 17.9663 21.3741 18.2216L21.4391 18.2866C21.6405 18.4879 21.8003 18.7268 21.9094 18.9899C22.0184 19.2529 22.0745 19.5348 22.0745 19.8196C22.0745 20.1043 22.0184 20.3862 21.9094 20.6493C21.8003 20.9123 21.6405 21.1512 21.4391 21.3525C21.2379 21.5539 20.9989 21.7137 20.7359 21.8228C20.4728 21.9318 20.1909 21.9879 19.9062 21.9879C19.6214 21.9879 19.3395 21.9318 19.0765 21.8228C18.8134 21.7137 18.5745 21.5539 18.3732 21.3525L18.3082 21.2875C18.0529 21.0377 17.7286 20.8702 17.3772 20.8065C17.0258 20.7428 16.6633 20.7858 16.3366 20.93C16.0162 21.0673 15.7429 21.2953 15.5504 21.586C15.3579 21.8766 15.2546 22.2172 15.2532 22.5658V22.75C15.2532 23.3246 15.025 23.8757 14.6186 24.282C14.2123 24.6884 13.6612 24.9166 13.0866 24.9166C12.5119 24.9166 11.9608 24.6884 11.5545 24.282C11.1482 23.8757 10.9199 23.3246 10.9199 22.75V22.6525C10.9115 22.2939 10.7955 21.9461 10.5868 21.6544C10.3781 21.3627 10.0865 21.1405 9.74992 21.0166C9.42317 20.8724 9.06071 20.8294 8.70928 20.8931C8.35785 20.9569 8.03357 21.1244 7.77825 21.3741L7.71325 21.4391C7.51203 21.6406 7.27307 21.8004 7.01004 21.9094C6.74701 22.0185 6.46507 22.0746 6.18033 22.0746C5.8956 22.0746 5.61366 22.0185 5.35063 21.9094C5.0876 21.8004 4.84864 21.6406 4.64742 21.4391C4.44597 21.2379 4.28616 20.999 4.17712 20.7359C4.06809 20.4729 4.01196 20.191 4.01196 19.9062C4.01196 19.6215 4.06809 19.3396 4.17712 19.0765C4.28616 18.8135 4.44597 18.5745 4.64742 18.3733L4.71242 18.3083C4.96217 18.053 5.1297 17.7287 5.19342 17.3773C5.25714 17.0259 5.21413 16.6634 5.06992 16.3366C4.93259 16.0162 4.70457 15.743 4.41392 15.5505C4.12327 15.358 3.78269 15.2547 3.43408 15.2533H3.24992C2.67528 15.2533 2.12418 15.025 1.71785 14.6187C1.31153 14.2124 1.08325 13.6613 1.08325 13.0866C1.08325 12.512 1.31153 11.9609 1.71785 11.5546C2.12418 11.1483 2.67528 10.92 3.24992 10.92H3.34742C3.706 10.9116 4.05376 10.7955 4.34549 10.5869C4.63723 10.3782 4.85944 10.0866 4.98325 9.74998C5.12746 9.42323 5.17048 9.06077 5.10676 8.70934C5.04304 8.35791 4.8755 8.03363 4.62575 7.77831L4.56075 7.71331C4.3593 7.51209 4.19949 7.27313 4.09046 7.0101C3.98142 6.74707 3.9253 6.46513 3.9253 6.1804C3.9253 5.89566 3.98142 5.61372 4.09046 5.35069C4.19949 5.08766 4.3593 4.8487 4.56075 4.64748C4.76198 4.44603 5.00093 4.28622 5.26396 4.17718C5.52699 4.06815 5.80893 4.01202 6.09367 4.01202C6.3784 4.01202 6.66034 4.06815 6.92337 4.17718C7.1864 4.28622 7.42536 4.44603 7.62658 4.64748L7.69158 4.71248C7.9469 4.96223 8.27118 5.12976 8.62261 5.19348C8.97404 5.2572 9.3365 5.21419 9.66325 5.06998H9.74992C10.0703 4.93265 10.3436 4.70463 10.5361 4.41398C10.7286 4.12334 10.8319 3.78275 10.8333 3.43415V3.24998C10.8333 2.67534 11.0615 2.12424 11.4679 1.71791C11.8742 1.31159 12.4253 1.08331 12.9999 1.08331C13.5746 1.08331 14.1257 1.31159 14.532 1.71791C14.9383 2.12424 15.1666 2.67534 15.1666 3.24998V3.34748C15.168 3.69608 15.2713 4.03667 15.4637 4.32732C15.6562 4.61796 15.9295 4.84599 16.2499 4.98331C16.5767 5.12752 16.9391 5.17054 17.2906 5.10682C17.642 5.0431 17.9663 4.87556 18.2216 4.62581L18.2866 4.56081C18.4878 4.35936 18.7268 4.19955 18.9898 4.09052C19.2528 3.98148 19.5348 3.92536 19.8195 3.92536C20.1042 3.92536 20.3862 3.98148 20.6492 4.09052C20.9122 4.19955 21.1512 4.35936 21.3524 4.56081C21.5539 4.76204 21.7137 5.001 21.8227 5.26402C21.9317 5.52705 21.9879 5.809 21.9879 6.09373C21.9879 6.37846 21.9317 6.6604 21.8227 6.92343C21.7137 7.18646 21.5539 7.42542 21.3524 7.62665L21.2874 7.69165C21.0377 7.94696 20.8701 8.27125 20.8064 8.62267C20.7427 8.9741 20.7857 9.33656 20.9299 9.66331V9.74998C21.0672 10.0704 21.2953 10.3437 21.5859 10.5361C21.8766 10.7286 22.2171 10.8319 22.5657 10.8333H22.7499C23.3246 10.8333 23.8756 11.0616 24.282 11.4679C24.6883 11.8742 24.9166 12.4253 24.9166 13C24.9166 13.5746 24.6883 14.1257 24.282 14.532C23.8756 14.9384 23.3246 15.1666 22.7499 15.1666H22.6524C22.3038 15.168 21.9632 15.2713 21.6726 15.4638C21.3819 15.6563 21.1539 15.9296 21.0166 16.25V16.25Z" stroke="#606E75" stroke-width="1.6" stroke-linecap="round" stroke-linejoin="round"/>
</svg>
