<svg width="28" height="26" viewBox="0 0 28 26" fill="none" xmlns="http://www.w3.org/2000/svg">
<path d="M21.0694 5.66759L9.55387 12.76C8.90221 13.1623 8.59383 13.9568 8.80378 14.6917L10.0489 19.0667C10.1553 19.4398 10.4872 19.6877 10.8692 19.6877C10.8904 19.6877 10.9119 19.6869 10.9335 19.6854C11.3418 19.6557 11.6649 19.3516 11.7192 18.9463L12.0429 16.5473C12.0866 16.2246 12.2421 15.9243 12.4805 15.7024L21.9832 6.86907C22.2704 6.6028 22.3084 6.16677 22.0717 5.85489C21.8347 5.54273 21.404 5.46202 21.0694 5.66759ZM11.7206 14.8857C11.2936 15.2831 11.0154 15.8202 10.9374 16.398L10.7803 17.5617L9.87653 14.3859C9.80308 14.1286 9.91125 13.8504 10.1393 13.7097L18.5753 8.51396L11.7206 14.8857Z" fill="white"/>
<path d="M27.5445 1.04432C27.1847 0.739386 26.6882 0.65544 26.2485 0.8253L0.824703 10.6331C0.321195 10.8273 -0.00255512 11.3013 1.51931e-05 11.8408C0.00264019 12.3808 0.331148 12.8523 0.837609 13.0421L6.77612 15.2585L9.09263 22.7083C9.21984 23.1178 9.54091 23.4361 9.95139 23.5595C10.3617 23.6829 10.8047 23.5947 11.1359 23.3238L14.5889 20.5089C14.7547 20.3737 14.9915 20.3671 15.1646 20.4928L21.3926 25.0144C21.6167 25.1773 21.8811 25.2611 22.1486 25.2611C22.3052 25.2611 22.463 25.2323 22.6143 25.1738C23.0237 25.0155 23.3214 24.6646 23.4106 24.2352L27.9731 2.28863C28.0689 1.82652 27.9047 1.34975 27.5445 1.04432ZM26.8809 2.06195L22.3184 24.0085C22.3019 24.0878 22.2448 24.1208 22.2122 24.1334C22.1794 24.1461 22.1146 24.1601 22.0483 24.1119L15.8201 19.5901C15.5417 19.3879 15.2144 19.2876 14.8876 19.2876C14.5311 19.2876 14.1752 19.4071 13.8842 19.6441L10.4305 22.4597C10.369 22.51 10.3052 22.501 10.2727 22.4912C10.24 22.4814 10.1817 22.4535 10.1579 22.3771L7.76017 14.6659C7.70893 14.5011 7.58424 14.3693 7.42259 14.3089L1.22841 11.9971C1.13566 11.9624 1.11591 11.8901 1.11564 11.8354C1.11537 11.7813 1.1344 11.7093 1.22627 11.6738L26.6501 1.86611C26.6502 1.86606 26.6504 1.866 26.6505 1.86595C26.7331 1.83407 26.7942 1.87071 26.8233 1.89532C26.8525 1.9202 26.899 1.97489 26.8809 2.06195Z" fill="white"/>
</svg>
