<svg width="32" height="28" viewBox="0 0 32 28" fill="none" xmlns="http://www.w3.org/2000/svg">
<path d="M1.33904 13.2517L8.5074 15.9272L11.282 24.8503C11.4595 25.4217 12.1584 25.633 12.6222 25.2538L16.618 21.9963C17.0368 21.6551 17.6334 21.6381 18.0711 21.9558L25.278 27.1882C25.7742 27.5488 26.4772 27.2769 26.6017 26.6773L31.8811 1.28219C32.017 0.627224 31.3734 0.0808302 30.7498 0.322036L1.33064 11.671C0.604642 11.951 0.610968 12.9789 1.33904 13.2517ZM10.8348 14.503L24.8445 5.87443C25.0963 5.71982 25.3553 6.06027 25.1391 6.26082L13.5771 17.0083C13.1707 17.3866 12.9085 17.8928 12.8343 18.4423L12.4404 21.3611C12.3883 21.7508 11.8408 21.7895 11.7333 21.4123L10.2185 16.0899C10.0451 15.4828 10.2979 14.8344 10.8348 14.503Z" fill="white"/>
</svg>
