<svg width="27" height="28" viewBox="0 0 27 28" fill="none" xmlns="http://www.w3.org/2000/svg">
<path fill-rule="evenodd" clip-rule="evenodd" d="M24.982 20.3046C24.166 19.6476 23.2939 19.0579 22.4355 18.4556C20.7235 17.2531 19.1576 17.1597 17.8801 19.0942C17.1627 20.1803 16.1584 20.2279 15.1083 19.7514C12.2135 18.4388 9.97812 16.4163 8.66872 13.474C8.08949 12.1722 8.09711 11.0051 9.45234 10.0844C10.1699 9.59752 10.8927 9.02136 10.8349 7.95742C10.7595 6.57015 7.39117 1.93406 6.06103 1.44475C5.51063 1.24223 4.9625 1.25541 4.40254 1.44361C1.28358 2.49249 -0.00829017 5.05757 1.22892 8.09477C4.91989 17.1561 11.4154 23.4642 20.3568 27.3144C20.8666 27.5337 21.4329 27.6213 21.7196 27.7C23.7553 27.7204 26.14 25.7592 26.8287 23.8127C27.4918 21.9401 26.0905 21.1969 24.982 20.3046ZM14.9565 2.37374C21.4932 3.37894 24.5079 6.48719 25.3403 13.071C25.4175 13.6791 25.191 14.5942 26.0586 14.6111C26.9654 14.6284 26.7469 13.7268 26.7545 13.1181C26.8312 6.91737 21.4245 1.16904 15.1455 0.957099C14.6717 1.02527 13.6915 0.630418 13.6304 1.69221C13.5896 2.40806 14.4149 2.29045 14.9565 2.37374Z" fill="white"/>
<path fill-rule="evenodd" clip-rule="evenodd" d="M16.2354 4.1788C15.6067 4.10307 14.7766 3.80683 14.6297 4.67922C14.4763 5.59491 15.4014 5.50191 15.9958 5.63498C20.0331 6.53728 21.4388 8.00671 22.1036 12.0114C22.2006 12.5953 22.0078 13.504 23 13.3534C23.7353 13.2414 23.4697 12.4625 23.5312 12.0075C23.5638 8.16266 20.2692 4.66317 16.2354 4.1788Z" fill="white"/>
<path fill-rule="evenodd" clip-rule="evenodd" d="M16.6058 7.32294C16.1861 7.33331 15.7742 7.37874 15.6199 7.82725C15.3882 8.4976 15.8756 8.65743 16.3717 8.73711C18.0279 9.00298 18.8994 9.97954 19.0649 11.6311C19.1096 12.0793 19.3941 12.4425 19.827 12.3914C20.4271 12.3198 20.4813 11.7858 20.4629 11.2786C20.4926 9.42312 18.3954 7.27852 16.6058 7.32294Z" fill="white"/>
</svg>
